<svg height="800" width="800" xmlns="http://www.w3.org/2000/svg" viewBox="0 0 512 512" xml:space="preserve">
  <path style="fill:#eaffff" d="M439.242 482.358H72.758c-23.812 0-43.116-19.304-43.116-43.116V72.758c0-23.812 19.304-43.116 43.116-43.116h366.484c23.812 0 43.116 19.304 43.116 43.116v366.484c0 23.812-19.304 43.116-43.116 43.116"/>
  <path style="fill:#a9d5bb" d="M503.916 482.358c0 11.906-9.651 21.558-21.558 21.558H29.642c-11.906 0-21.558-9.651-21.558-21.558v-97.011h495.832zM105.095 105.095H29.642c-11.906 0-21.558-9.651-21.558-21.558s9.651-21.558 21.558-21.558h75.453c11.906 0 21.558 9.651 21.558 21.558s-9.652 21.558-21.558 21.558"/>
  <path style="fill:#ffed8f" d="M8.084 239.832C8.084 135.653 92.537 51.2 196.716 51.2s188.632 84.453 188.632 188.632c0 58.586-26.72 110.92-68.625 145.516H76.709C34.804 350.751 8.084 298.417 8.084 239.832"/>
  <path style="fill:#ffcd69" d="M320.674 239.832c0 68.46-55.498 123.958-123.958 123.958S72.758 308.292 72.758 239.832s55.498-123.958 123.958-123.958 123.958 55.497 123.958 123.958"/>
  <path style="fill:#a9d5bb" d="M503.916 158.989c0 11.906-9.651 21.558-21.558 21.558H363.789c-11.906 0-21.558-9.651-21.558-21.558h-43.116c-11.906 0-21.558-9.651-21.558-21.558s9.651-21.558 21.558-21.558h75.453c11.906 0 21.558 9.651 21.558 21.558h86.232c11.906.001 21.558 9.652 21.558 21.558"/>
  <path style="fill:#ddb961" d="M408.655 256h30.587c35.718 0 64.674 28.955 64.674 64.674v64.674h-312.59l10.779-32.337c6.437-19.312 24.509-32.337 44.865-32.337h71.955c20.356 0 38.428-13.025 44.865-32.337S388.299 256 408.655 256"/>
  <path style="fill:#cea455" d="M295.164 385.347H191.326l10.779-32.337c6.437-19.312 24.509-32.337 44.865-32.337h71.954a47.25 47.25 0 0 0 32.122-12.59c-11.787 30.345-31.196 56.885-55.882 77.264"/>
  <path d="M331.453 436.547H115.874c-4.466 0-8.084-3.62-8.084-8.084s3.618-8.084 8.084-8.084h215.579a8.084 8.084 0 0 1 0 16.168m32.336-420.379c10.401 0 18.863 8.463 18.863 18.863 0 4.465 3.618 8.084 8.084 8.084s8.084-3.62 8.084-8.084c0-10.401 8.463-18.863 18.863-18.863 4.466 0 8.084-3.62 8.084-8.084S422.15 0 417.684 0c-10.823 0-20.517 4.935-26.947 12.671C384.306 4.935 374.613 0 363.789 0a8.084 8.084 0 0 0 0 16.168M185.937 458.105h-21.558c-4.466 0-8.084 3.62-8.084 8.084s3.618 8.084 8.084 8.084h21.558c4.466 0 8.084-3.62 8.084-8.084s-3.618-8.084-8.084-8.084m229.052-320.673a8.083 8.083 0 0 0 8.084 8.084h59.284c7.43 0 13.474 6.044 13.474 13.474s-6.044 13.474-13.474 13.474H363.789c-7.43 0-13.474-6.044-13.474-13.474a8.083 8.083 0 0 0-8.084-8.084h-43.116c-7.43 0-13.474-6.044-13.474-13.474s6.044-13.474 13.474-13.474h75.453c7.43 0 13.474 6.044 13.474 13.474a8.083 8.083 0 0 0 8.084 8.084 8.084 8.084 0 0 0 8.084-8.084c0-16.345-13.298-29.642-29.642-29.642h-75.453c-16.344 0-29.642 13.297-29.642 29.642s13.298 29.642 29.642 29.642h36.151c3.527 12.428 14.978 21.558 28.522 21.558h118.568c16.344 0 29.642-13.297 29.642-29.642s-13.298-29.642-29.642-29.642h-59.284a8.083 8.083 0 0 0-8.083 8.084M304.477 301.67a8.083 8.083 0 0 0 10.82-3.692c8.933-18.185 13.461-37.748 13.461-58.147 0-20.175-4.433-39.545-13.179-57.569-1.95-4.016-6.786-5.695-10.802-3.745a8.086 8.086 0 0 0-3.746 10.802c7.67 15.807 11.558 32.802 11.558 50.512 0 17.906-3.972 35.071-11.804 51.018a8.086 8.086 0 0 0 3.692 10.821M29.642 113.179c4.466 0 8.084-3.62 8.084-8.084s-3.618-8.084-8.084-8.084c-7.43 0-13.474-6.044-13.474-13.474s6.044-13.474 13.474-13.474h43.116c4.466 0 8.084-3.62 8.084-8.084s-3.618-8.084-8.084-8.084H29.642C13.298 53.895 0 67.192 0 83.537s13.298 29.642 29.642 29.642m409.6 134.737h-30.587c-5.342 0-10.544.762-15.488 2.198a199 199 0 0 0-1.727-38.374c-.633-4.42-4.738-7.495-9.147-6.858a8.086 8.086 0 0 0-6.859 9.147 183 183 0 0 1 1.829 25.803c0 6.164-.314 12.37-.933 18.478a55.3 55.3 0 0 0-20.209 27.471 39.16 39.16 0 0 1-37.196 26.808H246.97a55.31 55.31 0 0 0-52.534 37.864l-8.936 26.809H79.651C39.27 342.845 16.168 292.921 16.168 239.83c0-99.554 80.994-180.547 180.547-180.547 39.429 0 76.885 12.48 108.319 36.089a8.084 8.084 0 0 0 9.71-12.928c-34.255-25.729-75.07-39.329-118.028-39.329C88.246 43.116 0 131.362 0 239.832c0 51.797 20.179 100.825 55.983 137.432H8.084c-4.466 0-8.084 3.62-8.084 8.084s3.618 8.084 8.084 8.084h408.522c4.466 0 8.084-3.62 8.084-8.084s-3.618-8.084-8.084-8.084H202.542l7.233-21.696a39.16 39.16 0 0 1 37.196-26.809h71.954c8.16 0 15.996-1.777 23.079-5.022a175.4 175.4 0 0 1-18.976 26.166 8.084 8.084 0 1 0 12.153 10.662c20.269-23.105 34.778-50.979 42.024-80.699a39.15 39.15 0 0 1 31.451-15.781h30.587c31.203 0 56.589 25.385 56.589 56.589v56.589h-49.044c-4.466 0-8.084 3.62-8.084 8.084s3.618 8.084 8.084 8.084h57.128a8.084 8.084 0 0 0 8.084-8.084v-64.674c0-40.119-32.639-72.757-72.758-72.757M196.716 123.958c17.374 0 34.076 3.748 49.641 11.139 4.029 1.913 8.855.199 10.769-3.835a8.084 8.084 0 0 0-3.834-10.77c-17.75-8.428-36.784-12.702-56.577-12.702-72.809 0-132.042 59.234-132.042 132.042 0 60.68 41.056 113.351 99.841 128.086.66.165 1.32.245 1.971.245a8.086 8.086 0 0 0 1.959-15.928c-51.579-12.929-87.604-59.151-87.604-112.403.002-63.894 51.984-115.874 115.876-115.874m199.41 296.421h-21.558c-4.466 0-8.084 3.62-8.084 8.084s3.618 8.084 8.084 8.084h21.558c4.466 0 8.084-3.62 8.084-8.084s-3.618-8.084-8.084-8.084m-48.505 37.726H218.274c-4.466 0-8.084 3.62-8.084 8.084s3.618 8.084 8.084 8.084h129.347c4.466 0 8.084-3.62 8.084-8.084s-3.618-8.084-8.084-8.084m-59.284 37.727h-64.674c-4.466 0-8.084 3.62-8.084 8.084s3.618 8.084 8.084 8.084h64.674c4.466 0 8.084-3.62 8.084-8.084s-3.618-8.084-8.084-8.084"/>
</svg>
